<svg width="25" height="17" viewBox="0 0 25 17" fill="none" xmlns="http://www.w3.org/2000/svg">
<circle cx="17.0154" cy="4" r="4" fill="url(#paint0_linear_32_452)"/>
<path d="M25 17C18 17 21.4183 17 17 17C12.5817 17 13.5 17 9.00001 17C9.00001 12.5817 12.5817 9 17 9C21.4183 9 25 12.5817 25 17Z" fill="url(#paint1_linear_32_452)"/>
<circle cx="8.01538" cy="4" r="4" fill="url(#paint2_linear_32_452)"/>
<path d="M17 17C10 17 13.4183 17 9.00001 17C4.58173 17 5.50001 17 1.00001 17C1.00001 12.5817 4.58173 9 9.00001 9C13.4183 9 17 12.5817 17 17Z" fill="#282417"/>
<path d="M16 17C9.00001 17 12.4183 17 8.00001 17C3.58173 17 4.50001 17 9.86966e-06 17C9.86966e-06 12.5817 3.58173 9 8.00001 9C12.4183 9 16 12.5817 16 17Z" fill="url(#paint3_linear_32_452)"/>
<defs>
<linearGradient id="paint0_linear_32_452" x1="14.6154" y1="6.4" x2="19.644" y2="1.37143" gradientUnits="userSpaceOnUse">
<stop stop-color="#FF913D"/>
<stop offset="0.142857" stop-color="#FF9937"/>
<stop offset="0.285714" stop-color="#FFA131"/>
<stop offset="0.428571" stop-color="#FFA92A"/>
<stop offset="0.571429" stop-color="#FFB223"/>
<stop offset="0.714286" stop-color="#FFBA1A"/>
<stop offset="0.857143" stop-color="#FFC30F"/>
<stop offset="1" stop-color="#FFCC00"/>
</linearGradient>
<linearGradient id="paint1_linear_32_452" x1="12.2" y1="15.4" x2="16.2229" y2="7.35429" gradientUnits="userSpaceOnUse">
<stop stop-color="#FF913D"/>
<stop offset="0.142857" stop-color="#FF9937"/>
<stop offset="0.285714" stop-color="#FFA131"/>
<stop offset="0.428571" stop-color="#FFA92A"/>
<stop offset="0.571429" stop-color="#FFB223"/>
<stop offset="0.714286" stop-color="#FFBA1A"/>
<stop offset="0.857143" stop-color="#FFC30F"/>
<stop offset="1" stop-color="#FFCC00"/>
</linearGradient>
<linearGradient id="paint2_linear_32_452" x1="5.61538" y1="6.4" x2="10.644" y2="1.37143" gradientUnits="userSpaceOnUse">
<stop stop-color="#FF913D"/>
<stop offset="0.142857" stop-color="#FF9937"/>
<stop offset="0.285714" stop-color="#FFA131"/>
<stop offset="0.428571" stop-color="#FFA92A"/>
<stop offset="0.571429" stop-color="#FFB223"/>
<stop offset="0.714286" stop-color="#FFBA1A"/>
<stop offset="0.857143" stop-color="#FFC30F"/>
<stop offset="1" stop-color="#FFCC00"/>
</linearGradient>
<linearGradient id="paint3_linear_32_452" x1="3.2" y1="15.4" x2="7.22286" y2="7.35429" gradientUnits="userSpaceOnUse">
<stop stop-color="#FF913D"/>
<stop offset="0.142857" stop-color="#FF9937"/>
<stop offset="0.285714" stop-color="#FFA131"/>
<stop offset="0.428571" stop-color="#FFA92A"/>
<stop offset="0.571429" stop-color="#FFB223"/>
<stop offset="0.714286" stop-color="#FFBA1A"/>
<stop offset="0.857143" stop-color="#FFC30F"/>
<stop offset="1" stop-color="#FFCC00"/>
</linearGradient>
</defs>
</svg>
