<svg width="20" height="22" viewBox="0 0 20 22" fill="none" xmlns="http://www.w3.org/2000/svg">
<rect x="3.03027" y="17.5757" width="3.0303" height="4.24242" rx="1.51515" fill="#FF923D"/>
<rect x="13.9394" y="17.5757" width="3.0303" height="4.24242" rx="1.51515" fill="#FF9F33"/>
<path fill-rule="evenodd" clip-rule="evenodd" d="M5 0C2.23858 0 0 2.23857 0 5V13.7879C0 16.5493 2.23858 18.7879 5 18.7879H15C17.7614 18.7879 20 16.5493 20 13.7879V5C20 2.23858 17.7614 0 15 0H5ZM4.81818 2.42424C3.16133 2.42424 1.81818 3.76739 1.81818 5.42424V8.51515C1.81818 10.172 3.16133 11.5152 4.81818 11.5152H15.1818C16.8387 11.5152 18.1818 10.172 18.1818 8.51515V5.42424C18.1818 3.76739 16.8387 2.42424 15.1818 2.42424H4.81818ZM6.06061 14.2424C6.06061 15.0792 5.38225 15.7576 4.54545 15.7576C3.70866 15.7576 3.0303 15.0792 3.0303 14.2424C3.0303 13.4056 3.70866 12.7273 4.54545 12.7273C5.38225 12.7273 6.06061 13.4056 6.06061 14.2424ZM15.4545 15.7576C16.2913 15.7576 16.9697 15.0792 16.9697 14.2424C16.9697 13.4056 16.2913 12.7273 15.4545 12.7273C14.6178 12.7273 13.9394 13.4056 13.9394 14.2424C13.9394 15.0792 14.6178 15.7576 15.4545 15.7576Z" fill="url(#paint0_linear_17_235)"/>
<defs>
<linearGradient id="paint0_linear_17_235" x1="4" y1="15.0303" x2="15.7865" y2="2.4834" gradientUnits="userSpaceOnUse">
<stop stop-color="#FF913D"/>
<stop offset="0.142857" stop-color="#FF9937"/>
<stop offset="0.285714" stop-color="#FFA131"/>
<stop offset="0.428571" stop-color="#FFA92A"/>
<stop offset="0.571429" stop-color="#FFB223"/>
<stop offset="0.714286" stop-color="#FFBA1A"/>
<stop offset="0.857143" stop-color="#FFC30F"/>
<stop offset="1" stop-color="#FFCC00"/>
</linearGradient>
</defs>
</svg>
