<svg width="99" height="99" viewBox="0 0 99 99" fill="none" xmlns="http://www.w3.org/2000/svg">
<circle cx="49.5" cy="49.5" r="49.5" fill="#181817"/>
<path d="M31.4 56.96C31.8267 58.1867 32.04 59.3333 32.04 60.4C32.04 60.9067 32.2533 61.16 32.68 61.16C33.1333 61.16 33.36 60.9067 33.36 60.4C33.36 59.2533 33.56 58.1067 33.96 56.96L41.08 36.84H49L38.12 65H27.24L16.36 36.84H24.28L31.4 56.96ZM50.2872 58.28C51.4872 57.5867 52.6739 56.9467 53.8472 56.36C55.0472 55.7733 56.5672 55.0533 58.4072 54.2C60.8872 53.08 62.8072 52.1467 64.1672 51.4C65.5272 50.6533 66.6472 49.8133 67.5272 48.88C68.4072 47.9467 68.8472 46.9067 68.8472 45.76C68.8472 44.64 68.3272 43.7867 67.2872 43.2C66.2472 42.5867 64.8472 42.28 63.0872 42.28C61.3805 42.28 59.9805 42.6667 58.8872 43.44C57.8205 44.2133 57.2872 45.4133 57.2872 47.04H50.2872C50.2872 45.04 50.7805 43.2267 51.7672 41.6C52.7539 39.9467 54.2072 38.64 56.1272 37.68C58.0739 36.6933 60.3939 36.2 63.0872 36.2C65.7805 36.2 68.0872 36.6267 70.0072 37.48C71.9272 38.3067 73.3805 39.44 74.3672 40.88C75.3805 42.32 75.8872 43.9467 75.8872 45.76C75.8872 47.7067 75.2872 49.4 74.0872 50.84C72.9139 52.28 71.5139 53.48 69.8872 54.44C68.2605 55.3733 66.2339 56.3867 63.8072 57.48C63.4605 57.64 62.8872 57.9067 62.0872 58.28C61.3139 58.6267 60.6739 58.9467 60.1672 59.24C59.6339 59.5333 59.4605 59.8267 59.6472 60.12C59.7805 60.28 59.9139 60.36 60.0472 60.36C60.2339 60.36 60.4605 60.28 60.7272 60.12C61.3139 59.8 61.9005 59.5733 62.4872 59.44C63.0739 59.3067 63.8605 59.24 64.8472 59.24H76.5272V65H50.2872V58.28Z" fill="#FFCC00"/>
</svg>
