<svg width="99" height="99" viewBox="0 0 99 99" fill="none" xmlns="http://www.w3.org/2000/svg">
<circle cx="49.5" cy="49.5" r="49.5" fill="#FFCC00"/>
<path d="M31.4 56.96C31.8267 58.1867 32.04 59.3333 32.04 60.4C32.04 60.9067 32.2533 61.16 32.68 61.16C33.1333 61.16 33.36 60.9067 33.36 60.4C33.36 59.2533 33.56 58.1067 33.96 56.96L41.08 36.84H49L38.12 65H27.24L16.36 36.84H24.28L31.4 56.96ZM50.2872 53.16L62.2872 36.84H73.3272V53.8H77.8072V59.56H73.3272V65H66.2872V59.56H50.2872V53.16ZM56.6472 54.4C56.4872 54.6667 56.4072 54.88 56.4072 55.04C56.4072 55.2267 56.5005 55.3733 56.6872 55.48C56.8472 55.5333 56.9405 55.56 56.9672 55.56C57.1539 55.56 57.3139 55.4933 57.4472 55.36C57.5805 55.2 57.6605 55.1067 57.6872 55.08C58.0605 54.6267 58.4339 54.3067 58.8072 54.12C59.2072 53.9067 59.7539 53.8 60.4472 53.8H66.2872V44.52C66.2872 43.6667 66.4739 42.8267 66.8472 42C67.1139 41.4667 67.2472 41.0933 67.2472 40.88C67.2472 40.6667 67.1672 40.5333 67.0072 40.48C66.9539 40.4533 66.8872 40.44 66.8072 40.44C66.5939 40.44 66.3672 40.6267 66.1272 41L56.6472 54.4Z" fill="#181817"/>
</svg>
